<svg xmlns="http://www.w3.org/2000/svg" viewBox="0 0 498.806 524.24">
<defs>
    <style>
        .frame {
        fill: #03030230;
        }

        .background {
        fill: #007BFF30;
        }

        .white {
        fill: #ffffff30;
        }

        .body {
        fill: #e59d0530;
        }

        .text {
        fill: #00000099;
        }
    </style>
</defs>
<path class="frame" d="M138.854,158.573c8.121-8.362,16.242-16.644,25.328-24.041a206.791,206.791,0,0,1,62.235-34.978c3.458-1.206,4.262-4.261,5.95-6.754,3.94-5.869,3.86-5.869-2.492-8.925-7.157-3.377-8.2-7.478-2.171-12.7,9.648-8.443,19.86-16.242,29.911-24.283,5.468-4.342,10.533-9.327,18.092-10.533,11.659-1.85,22.353-1.207,30.715,8.442,2.493,2.9,5.548,3.377,9.247,2.573,7.478-1.608,14.956-4.1,22.755-3.457,10.051.884,18.413,5.709,26.454,11.337,12.141,8.443,23.4,18.011,35.942,25.891,12.865,8.121,27.419,11.257,42.214,13.83,19.056,3.377,36.665,11.016,53.631,20.1a34.914,34.914,0,0,1,5.709,4.02c4.744,3.78,4.744,8.121.08,12.061-5.307,4.5-12.222,5.227-18.413,7.639-1.688.643-3.457,1.045-5.066,1.608-2.653.965-5.146,1.528-6.593,4.985-1.769,4.1-6.754,5.227-10.614,7.076-5.869,2.815-5.869,2.734-1.688,7.8,32.967,39,49.048,84.025,47.842,135.084-1.045,40.444-14.393,76.788-37.63,109.675a5.168,5.168,0,0,0-1.046,3.859c1.85,19.137-12.624,34.173-31.921,33.369a5.389,5.389,0,0,0-3.94,1.367,204.181,204.181,0,0,1-110.238,45.912c-51.622,5.388-99.866-5.146-142.964-34.414-47.521-32.163-77.352-76.547-87.4-133.556-5.146-29.268-2.975-58.3,4.744-86.839.482-1.93-.081-2.332-1.769-2.815C78.147,227,65.925,210.838,66.97,193.952c1.126-18.574,14.152-32.806,32.967-35.7,3.94-.563,5.065-1.85,4.905-5.87-.4-10.775,2.653-20.343,11.257-27.339,4.422-3.618,9.407-4.985,14.8-2.573,5.306,2.332,7.638,6.755,8.04,12.383.563,7.88-.321,15.68-.4,23.559v.563Zm138.7,182.2.322.321-.081-.563a105.538,105.538,0,0,1-2.492-10.855c-2.654-20.343-1.367-40.686.723-61.029.161-1.527.241-2.492,2.171-2.251,2.01.241,1.608,1.528,1.448,2.734A350.646,350.646,0,0,0,277.8,313.2c.322,8.845.081,17.77,4.262,26.052.8,1.608,1.206,3.538,2.734,4.744a35.427,35.427,0,0,0,2.975-4.664q19.3-42.816,38.6-85.714a36.626,36.626,0,0,0,3.457-14.875c0-1.93-.643-2.332-2.412-2.171-5.467.4-11.016.643-16.564,1.045-8.6.724-17.368.724-24.283,7.317-.723.724-2.171.965-2.733.081-.885-1.206.16-2.412,1.045-3.217,3.779-3.3,7.96-6.191,13.106-6.673,9.167-.885,18.253-1.689,27.419-2.252,3.3-.241,5.307-.643,3.538-4.583a21.441,21.441,0,0,1-1.447-6.352c-.242-1.849-1.287-2.332-2.895-2.573-18.413-2.654-36.907-2.654-55.4-1.447-7,.482-13.428,1.206-17.368,8.2-1.046,1.93-.644,2.412.884,2.895,3.538,1.286,7.156,2.573,10.775,3.779a25.723,25.723,0,0,1,12.463,8.282c.723.965,1.367,2.332.563,3.216-.724.885-2.171.4-2.9-.4-5.95-7-14.715-8.362-22.675-11.177-2.332-.8-4.1-.241-5.709,2.011-7.478,10.211-7.96,21.147-5.226,33.047C246.278,295.346,259.3,319.387,277.556,340.776ZM251.182,220c-5.306.965-10.774,1.689-16,3.056-21.629,5.628-37.148,23.479-37.469,44.3-.241,16.162,2.975,32.082,7.156,47.6,13.348,49.691,30.957,97.936,48,146.421,2.091,5.95,6.593,9.167,12.946,9.247,15.438.161,30.8.241,46.234.322,11.257.08,16.081-3.458,19.619-14.152l30.635-91.9c9.327-27.58,19.137-54.918,22.192-84.106,1.448-14.071.644-27.258-8.523-38.917-11.016-14.071-25.971-19.861-43.1-21.63-2.412-.241-1.045,1.367-.885,2.011,2.654,10.613,3.056,21.307-1.366,31.358-13.67,31.037-26.7,62.4-41.973,92.629-3.3,6.513-5.387,6.915-10.292,1.528-20.182-22.434-34.977-47.842-41.812-77.512-2.573-11.257-3.94-22.354,2.332-33.048,3.618-6.111,8.523-11.257,12.463-17.046l.322-.241Zm34.173-15.277c5.79.161,11.659-.563,17.449,0,17.287,1.447,34.655,2.171,51.541,6.593,28.7,7.558,46.8,31.118,45.028,60.064a223.165,223.165,0,0,1-10.051,52.828c-14.474,46.555-30.233,92.709-46.8,138.621a20.463,20.463,0,0,0-.4,2.171c.643-.08,1.367-.16,2.01-.241a193.073,193.073,0,0,0,69.391-32c1.93-1.447,2.412-2.251,1.046-4.583a29.965,29.965,0,0,1,4.181-37.148c9.649-9.649,24.041-11.418,36.263-4.181,1.769,1.045,2.252.161,2.975-.965q35.58-54.516,27.58-119.244c-5.066-40.766-22.755-75.341-52.023-104.127-1.528-1.447-2.815-2.01-4.825-1.608-3.779.643-7.558,1.126-11.337,1.608-8.765,1.206-17.368,2.01-25.087-3.7a11.514,11.514,0,0,0-5.468-1.688c-8.443-.885-17.287.321-24.926-5.066-2.091-1.528-4.824-2.171-7.156-3.377-2.01-1.045-2.734-.563-3.377,1.608-9.73,33.208-40.847,51.782-74.618,44.626-32.565-6.915-53.632-39.238-47.038-72.286a17.054,17.054,0,0,0,.161-2.09,10.239,10.239,0,0,0-1.528.321c-33.932,13.509-61.994,34.656-83.7,64.165a4.428,4.428,0,0,0-1.045,3.7c3.055,16.885-4.985,32.565-20.745,40.445a4.653,4.653,0,0,0-2.654,2.975c-9.086,26.775-12.543,54.274-7.558,82.1,13.187,73.171,55.481,121.736,125.676,145.939a12.589,12.589,0,0,0,2.413.4c-.161-.8-.322-1.608-.563-2.412-7.88-22.273-16.242-44.385-23.479-66.818-10.453-32.244-22.916-63.924-28.7-97.615-2.091-12.382-4.744-24.845-2.171-37.308,4.663-22.434,18.815-36.907,40.284-43.661,19.217-5.951,39.238-7.478,59.259-8.041ZM232.769,76.317a77.249,77.249,0,0,1,7.317,3.538c4.342,2.653,5.388,6.191,3.056,10.694a71.731,71.731,0,0,1-4.342,6.593c-.241.4-.724.965-.643,1.367.321,1.206,6.593,2.814,7.638,2.01,5.87-4.261,11.579-8.684,17.851-12.3,10.613-5.95,13.025-5.066,16.885,6.513,1.367,4.1,4.1,6.191,8.362,6.593,5.307.483,9.81-1.366,14.152-4.342,12.7-8.6,31.841.161,33.61,15.358.965,8.041.322,16.162,2.171,24.122.885,3.7,2.895,4.825,6.433,4.1a24.916,24.916,0,0,1,19.86,4.422,21.38,21.38,0,0,0,15.68,3.94,25.194,25.194,0,0,1,18.172,4.262,11.021,11.021,0,0,0,8.121,2.171c12.865-2.01,25.65-4.02,38.515-5.95a40.081,40.081,0,0,0,14.151-4.905c-1.929-.241-3.3-.482-4.663-.643-5.87-.483-11.82-.885-17.69-1.448-2.573-.241-4.9-1.367-4.824-4.342.08-3.055,2.332-3.94,5.065-3.94,2.252,0,4.5-.08,6.755.081,17.126.884,34.092.563,49.932-7.237,1.126-.563,2.171-1.045,3.3-1.608a19.07,19.07,0,0,0-3.136-2.573c-12.463-6.593-25.248-12.543-38.837-16.725-11.1-3.457-22.674-4.422-33.931-7.236-15.519-3.86-27.66-13.348-40.445-21.871-10.614-7.076-20.1-15.679-31.6-21.469C342.364,51.873,334.806,50.1,326.524,53c-10.131,3.538-19.941,4.5-28.545-4.583-6.352-6.674-19.941-7.157-27.338-1.609C257.937,56.456,245.474,66.427,232.769,76.317Zm58.054,109.032c22.514,0,42.535-14.232,48.968-34.656.4-1.367.482-2.171-1.126-2.734-3.7-1.366-5.789-4.181-6.754-7.96a91.135,91.135,0,0,1-2.734-23.318c.161-7.719-4.824-13.508-12.382-14.875-4.342-.8-8.041.8-11.579,3.136-13.669,8.925-27.58,4.583-32.806-10.292-.563-1.689-1.287-1.93-2.653-.965-7.478,5.226-14.956,10.453-22.354,15.679a6.356,6.356,0,0,0-1.688,2.171,51.537,51.537,0,0,0-6.352,22.192C238.317,161.87,261.716,185.349,290.823,185.349ZM93.1,222.5l.724.482A31.233,31.233,0,0,0,128,215.662a30.174,30.174,0,0,0,5.146-33.61,14.845,14.845,0,0,1-1.367-5.628c-.8-12.866-.965-25.811-.482-38.757.08-3.457-1.046-7-4.262-8.523-3.055-1.447-5.628.965-7.8,2.895-5.87,5.307-9.73,22.916-5.951,29.831,4.342,7.88,5.388,15.84,4.021,24.524-1.85,11.82-5.307,22.755-15.278,30.394A99.29,99.29,0,0,1,93.1,222.5ZM463.3,412.659A23.4,23.4,0,0,0,440.38,388.7a23.727,23.727,0,0,0-24.444,23.72c-.16,12.544,10.614,23.318,23.479,23.559A23.61,23.61,0,0,0,463.3,412.659ZM75.011,192.746c-.081,10.373,2.653,16.886,7.719,22.434a3.368,3.368,0,0,0,4.02,1.125c12.785-3.779,19.459-12.865,22.032-25.328,1.608-8.121,3.538-16.4-1.689-24.2a3.422,3.422,0,0,0-3.377-1.769C87.635,165.408,75.011,178.836,75.011,192.746Z" transform="translate(-49.353 -35.53)"/>
<path class="background" d="M285.355,204.727c-20.021.563-40.042,2.01-59.26,8.041-21.468,6.754-35.62,21.227-40.283,43.661-2.573,12.463.08,24.845,2.171,37.308,5.708,33.691,18.172,65.371,28.7,97.615,7.317,22.433,15.679,44.545,23.479,66.818.241.8.4,1.608.563,2.412-.8-.08-1.609-.241-2.413-.4-70.275-24.2-112.489-72.768-125.676-145.939-5.065-27.821-1.608-55.32,7.558-82.095a4.849,4.849,0,0,1,2.654-2.975c15.76-7.8,23.8-23.56,20.745-40.445a4.5,4.5,0,0,1,1.045-3.7c21.63-29.509,49.692-50.656,83.7-64.165a10.239,10.239,0,0,1,1.528-.321,9.154,9.154,0,0,1-.161,2.09c-6.594,33.048,14.393,65.371,47.038,72.286,33.851,7.156,64.888-11.418,74.618-44.626.643-2.251,1.286-2.734,3.377-1.608,2.331,1.206,5.065,1.849,7.156,3.377,7.639,5.387,16.483,4.1,24.926,5.066a12.475,12.475,0,0,1,5.468,1.688c7.8,5.709,16.4,4.905,25.087,3.7,3.779-.563,7.558-.965,11.337-1.608a4.825,4.825,0,0,1,4.825,1.608C462.814,191.3,480.5,225.874,485.569,266.64q7.96,64.527-27.58,119.244c-.723,1.126-1.206,2.09-2.975.965-12.222-7.237-26.614-5.468-36.263,4.181a29.954,29.954,0,0,0-4.182,37.148c1.448,2.332.885,3.216-1.045,4.583a193.073,193.073,0,0,1-69.391,32c-.643.081-1.367.161-2.01.241a20.463,20.463,0,0,1,.4-2.171c16.564-45.912,32.323-92.066,46.8-138.621a223.165,223.165,0,0,0,10.051-52.828c1.849-28.946-16.323-52.506-45.028-60.064-16.886-4.422-34.254-5.146-51.541-6.593C297.014,204.244,291.225,204.888,285.355,204.727Z" transform="translate(-49.353 -35.53)"/>
<path class="white" d="M232.769,76.317c12.7-9.971,25.168-19.941,37.872-29.51,7.4-5.548,20.986-5.065,27.338,1.609,8.6,9.086,18.414,8.121,28.545,4.583,8.282-2.9,15.76-1.126,23.157,2.492,11.5,5.709,20.986,14.393,31.6,21.469,12.785,8.523,24.926,18.011,40.284,21.871,11.257,2.814,22.835,3.859,33.932,7.236,13.588,4.182,26.293,10.132,38.836,16.725a19.07,19.07,0,0,1,3.136,2.573c-1.126.563-2.171,1.045-3.3,1.608-15.84,7.8-32.806,8.041-49.932,7.237-2.252-.081-4.5-.081-6.754-.081-2.654,0-4.986.885-5.066,3.94s2.171,4.1,4.824,4.342c5.87.563,11.74.965,17.69,1.448,1.367.08,2.734.4,4.663.643a40.081,40.081,0,0,1-14.151,4.905c-12.865,2.01-25.65,4.02-38.515,5.95a10.927,10.927,0,0,1-8.121-2.171,25.194,25.194,0,0,0-18.172-4.262,21.381,21.381,0,0,1-15.68-3.94c-6.03-4.261-12.624-5.95-19.86-4.422-3.538.724-5.548-.4-6.433-4.1-1.849-7.96-1.206-16.081-2.171-24.122-1.849-15.2-20.906-23.961-33.61-15.358-4.342,2.975-8.845,4.744-14.151,4.342-4.262-.4-7-2.412-8.363-6.593-3.779-11.579-6.272-12.463-16.805-6.513-6.352,3.538-11.981,8.041-17.85,12.3-1.046.724-7.237-.884-7.639-2.01-.08-.321.4-.884.643-1.367a71.525,71.525,0,0,0,4.342-6.593c2.413-4.5,1.367-8.121-3.055-10.694C237.835,78.568,235.342,77.6,232.769,76.317Z" transform="translate(-49.353 -35.53)"/>
<path class="body" d="M290.823,185.349c-29.107,0-52.586-23.4-51.46-51.622a51.219,51.219,0,0,1,6.352-22.192,5.68,5.68,0,0,1,1.688-2.171c7.4-5.307,14.876-10.453,22.353-15.679,1.367-.965,2.091-.643,2.654.965,5.226,14.875,19.137,19.217,32.806,10.292,3.538-2.332,7.237-3.94,11.579-3.136,7.558,1.367,12.543,7.156,12.382,14.875A87.681,87.681,0,0,0,331.911,140c.965,3.86,3.055,6.674,6.754,7.96,1.689.563,1.608,1.367,1.126,2.734C333.358,171.117,313.337,185.349,290.823,185.349ZM269.194,130.27c0-1.287.321-2.493-1.528-3.136-6.111-1.93-12.222-4.1-18.333-6.191a1.893,1.893,0,0,0-2.412.563,12.52,12.52,0,0,0-1.206,14.151,12.881,12.881,0,0,0,14.473,5.79,11.833,11.833,0,0,0,9.006-11.177Zm33.61,3.94c-.965.08-2.01-.483-2.815,1.045-3.618,6.835,3.136,18.333,10.855,18.333,6.272,0,12.464-5.387,13.268-11.659.562-4.5-.724-6.031-5.146-6.352-5.388-.4-10.695-.885-16.162-1.367Z" transform="translate(-49.353 -35.53)"/>
<path class="body" d="M93.1,222.5a98.4,98.4,0,0,0,8.925-5.548c9.971-7.639,13.428-18.574,15.278-30.394,1.367-8.684.321-16.644-4.021-24.524-3.859-6.915,0-24.524,5.951-29.831,2.171-2.01,4.744-4.423,7.8-2.895,3.216,1.528,4.342,5.066,4.262,8.523-.483,12.865-.322,25.811.482,38.676a15.212,15.212,0,0,0,1.367,5.628A30.176,30.176,0,0,1,128,215.743a31.236,31.236,0,0,1-34.173,7.317A4.39,4.39,0,0,0,93.1,222.5Z" transform="translate(-49.353 -35.53)"/>
<path class="body" d="M463.3,412.659a23.66,23.66,0,0,1-23.8,23.4c-12.865-.241-23.64-11.016-23.479-23.559a23.677,23.677,0,0,1,24.444-23.72C453.245,388.859,463.457,399.473,463.3,412.659Z" transform="translate(-49.353 -35.53)"/>
<path class="body" d="M75.011,192.746c0-13.991,12.624-27.338,28.705-27.74a3.422,3.422,0,0,1,3.377,1.769c5.227,7.8,3.3,16.081,1.689,24.2-2.493,12.544-9.247,21.549-22.032,25.328a3.266,3.266,0,0,1-4.02-1.125C77.664,209.632,74.93,203.119,75.011,192.746Z" transform="translate(-49.353 -35.53)"/>
<path class="white" d="M251.424,220.245c-4.021,5.79-8.926,10.936-12.463,17.047-6.272,10.694-4.986,21.79-2.332,33.047,6.834,29.67,21.549,55.079,41.811,77.512,4.825,5.388,7,4.9,10.293-1.527,15.357-30.233,28.383-61.592,41.972-92.629,4.422-10.051,4.02-20.745,1.367-31.359-.161-.643-1.528-2.251.884-2.01,17.047,1.769,32.083,7.558,43.1,21.629,9.166,11.659,9.97,24.846,8.523,38.917-3.136,29.108-12.946,56.446-22.112,84.026q-15.318,45.952-30.635,91.9c-3.538,10.694-8.443,14.151-19.62,14.151-15.438-.08-30.8-.16-46.234-.321-6.352-.081-10.855-3.3-12.945-9.247-17.046-48.485-34.656-96.73-48-146.421-4.181-15.6-7.4-31.439-7.156-47.6.321-20.826,15.84-38.676,37.469-44.3,5.227-1.367,10.694-2.011,16-3.056C251.263,220.085,251.343,220.165,251.424,220.245Zm-.242-.241h.563l-.321.241Z" transform="translate(-49.353 -35.53)"/>
<path class="body" d="M277.556,340.776c-18.252-21.389-31.278-45.43-37.47-73.09-2.653-11.981-2.251-22.916,5.227-33.048,1.608-2.251,3.377-2.814,5.709-2.01,7.96,2.814,16.724,4.181,22.674,11.177.724.8,2.171,1.286,2.895.4s.161-2.252-.563-3.217a25.366,25.366,0,0,0-12.463-8.282c-3.618-1.206-7.237-2.412-10.774-3.779-1.448-.562-1.93-1.045-.885-2.894,3.94-7,10.373-7.719,17.368-8.2,18.574-1.206,36.987-1.286,55.4,1.448,1.689.241,2.654.723,2.9,2.573a21.472,21.472,0,0,0,1.447,6.352c1.689,4.02-.241,4.422-3.537,4.583-9.167.563-18.333,1.367-27.419,2.251-5.146.483-9.247,3.377-13.107,6.674-.884.8-1.929,2.01-1.045,3.216a1.853,1.853,0,0,0,2.734-.08c6.835-6.513,15.679-6.593,24.283-7.317,5.468-.483,11.016-.643,16.564-1.045,1.769-.161,2.412.241,2.412,2.171a36.631,36.631,0,0,1-3.458,14.875q-19.3,42.816-38.595,85.714a35.146,35.146,0,0,1-2.975,4.663c-1.528-1.206-1.93-3.136-2.734-4.744-4.181-8.2-3.94-17.126-4.261-26.052-.483-14.714.482-29.428,1.849-44.063.08-1.206.563-2.492-1.447-2.733-1.93-.242-2.011.8-2.171,2.251-2.091,20.343-3.458,40.686-.724,61.029a100.705,100.705,0,0,0,2.493,10.855Zm.241-.242.081.563-.322-.321Z" transform="translate(-49.353 -35.53)"/>
<path class="frame" d="M269.194,130.27a12.019,12.019,0,0,1-8.926,11.257,12.836,12.836,0,0,1-14.473-5.789A12.523,12.523,0,0,1,247,121.586a1.809,1.809,0,0,1,2.412-.563c6.111,2.091,12.142,4.262,18.333,6.191C269.515,127.777,269.274,128.983,269.194,130.27Z" transform="translate(-49.353 -35.53)"/>
<path class="frame" d="M302.8,134.21c5.467.482,10.855.965,16.162,1.367,4.422.321,5.708,1.849,5.146,6.352-.8,6.272-7,11.739-13.268,11.659-7.719,0-14.473-11.5-10.855-18.333C300.713,133.727,301.839,134.29,302.8,134.21Z" transform="translate(-49.353 -35.53)"/>
<g class="text">
    <path d="M49.353,559.77V518.139h5.579V559.77Zm5.862-20.363v-.339l5.806-20.929h5.154l-5.919,20.7,7.49,20.929H62.2Z" transform="translate(-49.353 -35.53)"/>
    <path d="M70.905,559.77V518.139h13.82v5.041H76.484v12.631h7.307v5.041H76.484v13.877h8.241v5.041Z" transform="translate(-49.353 -35.53)"/>
    <path d="M88.69,559.77V518.139h5.579V559.77Z" transform="translate(-49.353 -35.53)"/>
    <path d="M99.452,559.77V518.139h5.579l5.975,20.107V518.139h5.579V559.77h-5.579v-8.3L105.031,532.5V559.77Z" transform="translate(-49.353 -35.53)"/>
    <path d="M131.029,559.77V518.139h10.184q6.751,0,6.723,7.108v12.376q0,7.08-6.672,7.08h-4.656V559.77Zm5.579-20.136h3.54q2.21,0,2.209-2.436V525.615q0-2.436-2.521-2.435h-3.228Z" transform="translate(-49.353 -35.53)"/>
    <path d="M152.3,559.77V518.139h10.921q6.384,0,6.383,7.106v10.278q0,5.465-3.287,6.909L170.2,559.77h-5.268l-3.649-16.823h-3.4V559.77Zm5.579-21.58h3.654q2.492,0,2.492-3v-9.006q0-3-2.492-3h-3.654Z" transform="translate(-49.353 -35.53)"/>
    <path d="M173.934,552.69V525.247q0-7.108,6.6-7.108h5.422q6.7,0,6.67,7.108V552.69q0,7.078-6.722,7.08h-5.247Q173.906,559.77,173.934,552.69Zm5.579-.4a2.178,2.178,0,0,0,2.492,2.436h2.832q2.21,0,2.209-2.436V525.615a2.178,2.178,0,0,0-2.492-2.435h-2.6a2.152,2.152,0,0,0-2.436,2.435Z" transform="translate(-49.353 -35.53)"/>
    <path d="M197.525,559.77V518.139h9.685q7.816,0,7.845,7.986v27.613q0,6.031-6.683,6.032Zm5.579-5.041h4.163q2.21,0,2.209-1.869V526.182q0-3-2.492-3H203.1Z" transform="translate(-49.353 -35.53)"/>
    <path d="M219.955,551.812V518.139h5.579V552.01q0,2.718,2.435,2.719h2.266q2.267,0,2.265-2.719V518.139h5.58v33.729q0,7.9-6.723,7.9h-4.708Q219.955,559.77,219.955,551.812Z" transform="translate(-49.353 -35.53)"/>
    <path d="M243.262,559.77V518.139h5.579V559.77Zm5.863-20.363v-.339l5.805-20.929h5.154l-5.918,20.7,7.489,20.929H256.1Z" transform="translate(-49.353 -35.53)"/>
    <path d="M262.775,523.18v-5.041h16.256v5.041h-5.324v36.59h-5.58V523.18Z" transform="translate(-49.353 -35.53)"/>
    <path d="M282.2,559.77V518.139h9.531q7.433,0,7.433,7.533v7.986q0,3.6-4.016,4.418v.284q4.583,1.273,4.582,4.757v10.451q0,6.2-6.344,6.2Zm5.579-24.073h2.605q3.2,0,3.2-3v-6.514q0-3-2.492-3h-3.313Zm0,19.032h4.163q2.208,0,2.209-1.813v-9.2q0-2.946-3.314-2.974h-3.058Z" transform="translate(-49.353 -35.53)"/>
    <path d="M304.35,559.77V518.139h5.579V559.77Z" transform="translate(-49.353 -35.53)"/>
    <path d="M315.111,559.77V518.139h5.579v36.59h7.647v5.041Z" transform="translate(-49.353 -35.53)"/>
    <path d="M331.509,559.77V518.139h9.685q7.816,0,7.845,7.986v27.613q0,6.031-6.684,6.032Zm5.579-5.041h4.163q2.21,0,2.209-1.869V526.182q0-3-2.492-3h-3.88Z" transform="translate(-49.353 -35.53)"/>
    <path d="M361.16,518.139h5.579l4.517,31.775,4.517-31.775h5.58L374.56,559.77h-6.607Z" transform="translate(-49.353 -35.53)"/>
    <path d="M383.845,559.77V518.139h13.82v5.041h-8.241v12.631h7.306v5.041h-7.306v13.877h8.241v5.041Z" transform="translate(-49.353 -35.53)"/>
    <path d="M401.63,559.77V518.139h10.921q6.382,0,6.383,7.106v10.278q0,5.465-3.287,6.909l3.881,17.338h-5.267l-3.65-16.823h-3.4V559.77Zm5.579-21.58h3.653q2.492,0,2.492-3v-9.006q0-3-2.492-3h-3.653Z" transform="translate(-49.353 -35.53)"/>
    <path d="M423.55,559.77V518.139h13.82v5.041h-8.241v12.631h7.307v5.041h-7.307V559.77Z" transform="translate(-49.353 -35.53)"/>
    <path d="M441.108,551.812V518.139h5.58V552.01q0,2.718,2.435,2.719h2.266q2.265,0,2.265-2.719V518.139h5.579v33.729q0,7.9-6.722,7.9H447.8Q441.108,559.77,441.108,551.812Zm2.917-36.25v-5.806h4.333v5.806Zm7.817,0v-5.806h4.333v5.806Z" transform="translate(-49.353 -35.53)"/>
    <path d="M464.133,552.746v-27.5q0-7.108,6.379-7.108H474.4q7.1,0,7.095,7.25v4.5h-5.579v-3.71q0-3-2.379-3h-1.388q-2.436,0-2.435,3V551.7q0,3,2.435,3.031h3.767V544.505h-2.889v-5.041h8.468V559.77H470.572Q464.133,559.77,464.133,552.746Z" transform="translate(-49.353 -35.53)"/>
    <path d="M485.968,559.77V518.139H495.5q7.433,0,7.433,7.533v7.986q0,3.6-4.016,4.418v.284q4.583,1.273,4.582,4.757v10.451q0,6.2-6.344,6.2Zm5.579-24.073h2.6q3.2,0,3.2-3v-6.514q0-3-2.493-3h-3.313Zm0,19.032h4.163q2.209,0,2.209-1.813v-9.2q0-2.946-3.314-2.974h-3.058Z" transform="translate(-49.353 -35.53)"/>
    <path d="M507.831,559.77V525.247q0-7.108,6.6-7.108h4.258q6.7,0,6.673,7.108V559.77h-5.579V544.505H513.41V559.77Zm5.579-20.306h6.372V525.615a2.152,2.152,0,0,0-2.435-2.435h-1.5a2.152,2.152,0,0,0-2.436,2.435Z" transform="translate(-49.353 -35.53)"/>
    <path d="M530.261,559.77V518.139h10.921q6.382,0,6.382,7.106v10.278q0,5.465-3.286,6.909l3.881,17.338h-5.267l-3.65-16.823h-3.4V559.77Zm5.579-21.58h3.653q2.491,0,2.492-3v-9.006q0-3-2.492-3H535.84Z" transform="translate(-49.353 -35.53)"/>
</g>
</svg>
